<svg width="36" height="38" viewBox="0 0 36 38" fill="none" xmlns="http://www.w3.org/2000/svg">
<path d="M0 5.75391C0 2.99248 2.23858 0.753906 5 0.753906H31C33.7614 0.753906 36 2.99248 36 5.75391V32.2416C36 35.003 33.7614 37.2416 31 37.2416H5C2.23858 37.2416 0 35.003 0 32.2416V5.75391Z" fill="black"/>
<path d="M22.9279 20.2966L23.534 16.2916H19.7427V13.6926C19.7427 12.5969 20.2723 11.5289 21.9704 11.5289H23.6942V8.11926C23.6942 8.11926 22.1298 7.84863 20.6342 7.84863C17.5117 7.84863 15.4709 9.7667 15.4709 13.2391V16.2916H12V20.2966H15.4709V29.9783C16.1669 30.089 16.8802 30.1467 17.6068 30.1467C18.3335 30.1467 19.0467 30.089 19.7427 29.9783V20.2966H22.9279Z" fill="white"/>
</svg>
