<svg width="36" height="38" viewBox="0 0 36 38" fill="none" xmlns="http://www.w3.org/2000/svg">
<path d="M0 5.75391C0 2.99248 2.23858 0.753906 5 0.753906H31C33.7614 0.753906 36 2.99248 36 5.75391V32.2416C36 35.003 33.7614 37.2416 31 37.2416H5C2.23858 37.2416 0 35.003 0 32.2416V5.75391Z" fill="black"/>
<path fill-rule="evenodd" clip-rule="evenodd" d="M13 9.8623C10.8035 9.8623 9 11.6708 9 13.93V24.0655C9 26.3248 10.8035 28.1332 13 28.1332H23C25.1965 28.1332 27 26.3248 27 24.0655V13.93C27 11.6708 25.1965 9.8623 23 9.8623H13ZM7 13.93C7 10.5917 9.67365 7.8623 13 7.8623H23C26.3264 7.8623 29 10.5917 29 13.93V24.0655C29 27.4039 26.3264 30.1332 23 30.1332H13C9.67365 30.1332 7 27.4039 7 24.0655V13.93ZM18.4811 15.9329C17.86 15.8395 17.2251 15.9469 16.6662 16.2408C16.1071 16.5349 15.6512 17.0014 15.3657 17.5764C15.0801 18.1515 14.9802 18.8044 15.0814 19.4416C15.1826 20.0788 15.4791 20.6654 15.9264 21.1187C16.3735 21.5719 16.9484 21.8689 17.5685 21.9701C18.1884 22.0712 18.8246 21.9718 19.3869 21.6849C19.9495 21.3979 20.4109 20.9371 20.7033 20.3659C20.9959 19.7944 21.1037 19.1429 21.0102 18.5044C20.915 17.8532 20.6158 17.2524 20.1596 16.7899C19.7035 16.3277 19.1147 16.0281 18.4811 15.9329ZM15.7352 14.4707C16.6699 13.9791 17.735 13.7983 18.7783 13.9551C19.8425 14.1151 20.8256 14.6174 21.5832 15.3853C22.3407 16.1529 22.8327 17.1453 22.9892 18.2149C23.1426 19.2635 22.9661 20.3349 22.4836 21.2773C22.0011 22.2198 21.2363 22.9867 20.2958 23.4665C19.3551 23.9464 18.2879 24.1138 17.2465 23.944C16.2053 23.7742 15.2454 23.2762 14.5027 22.5234C13.7602 21.7708 13.2723 20.8019 13.1061 19.7552C12.94 18.7086 13.1035 17.6351 13.5744 16.6868C14.0454 15.7384 14.8007 14.9621 15.7352 14.4707ZM23.5 12.4236C22.9477 12.4236 22.5 12.8713 22.5 13.4236C22.5 13.9759 22.9477 14.4236 23.5 14.4236H23.51C24.0623 14.4236 24.51 13.9759 24.51 13.4236C24.51 12.8713 24.0623 12.4236 23.51 12.4236H23.5Z" fill="white"/>
</svg>
