<svg width="36" height="38" viewBox="0 0 36 38" fill="none" xmlns="http://www.w3.org/2000/svg">
<path d="M0 5.75391C0 2.99248 2.23858 0.753906 5 0.753906H31C33.7614 0.753906 36 2.99248 36 5.75391V32.2416C36 35.003 33.7614 37.2416 31 37.2416H5C2.23858 37.2416 0 35.003 0 32.2416V5.75391Z" fill="black"/>
<path d="M8.25362 16.1391H12.5399V29.1329H8.25362V16.1391ZM10.4254 9.87549C8.95843 9.87549 8 10.8457 8 12.1191C8 13.3663 8.93038 14.3647 10.3693 14.3647H10.3967C11.8917 14.3647 12.8228 13.3663 12.8228 12.1191C12.7947 10.8457 11.8918 9.87549 10.4254 9.87549ZM23.0638 15.8338C20.7886 15.8338 19.7693 17.0945 19.2007 17.9786V16.1391H14.9131C14.9699 17.358 14.9131 29.1329 14.9131 29.1329H19.2007V21.8762C19.2007 21.4876 19.2287 21.1003 19.3415 20.8219C19.652 20.0461 20.3574 19.2426 21.5407 19.2426C23.0931 19.2426 23.7131 20.4347 23.7131 22.1807V29.1328H28V21.6819C28 17.6909 25.8856 15.8338 23.0638 15.8338Z" fill="white"/>
</svg>
