<svg width="36" height="38" viewBox="0 0 36 38" fill="none" xmlns="http://www.w3.org/2000/svg">
<path d="M0 5.75391C0 2.99248 2.23858 0.753906 5 0.753906H31C33.7614 0.753906 36 2.99248 36 5.75391V32.2416C36 35.003 33.7614 37.2416 31 37.2416H5C2.23858 37.2416 0 35.003 0 32.2416V5.75391Z" fill="black"/>
<path d="M14.5795 28.1195C22.4745 28.1195 26.7928 21.4899 26.7928 15.7407C26.7928 15.5524 26.7928 15.365 26.7802 15.1784C27.6203 14.5625 28.3455 13.7999 28.9218 12.9264C28.1384 13.2782 27.3073 13.5089 26.4564 13.6109C27.3522 13.0673 28.0232 12.2118 28.3435 11.2045C27.5009 11.7112 26.579 12.0684 25.6178 12.2605C24.8062 11.3858 23.6727 10.8892 22.488 10.8892C20.1309 10.8892 18.1915 12.8549 18.1915 15.2438C18.1915 15.5753 18.2288 15.9056 18.3027 16.2284C14.8531 16.0532 11.6347 14.3994 9.45615 11.6829C8.32327 13.6595 8.90944 16.2211 10.7851 17.4906C10.1021 17.4701 9.43371 17.2833 8.83687 16.946V17.0011C8.83744 19.0643 10.2853 20.8575 12.2806 21.266C11.6487 21.4406 10.9855 21.4661 10.3424 21.3406C10.9033 23.1084 12.5209 24.327 14.3527 24.3619C12.833 25.5724 10.9547 26.2299 9.02182 26.228C8.68028 26.2273 8.33908 26.2063 8 26.1652C9.96281 27.4418 12.2473 28.1192 14.5795 28.1161" fill="white"/>
</svg>
