<svg width="36" height="38" viewBox="0 0 36 38" fill="none" xmlns="http://www.w3.org/2000/svg">
<path d="M0 5.75391C0 2.99248 2.23858 0.753906 5 0.753906H31C33.7614 0.753906 36 2.99248 36 5.75391V32.2416C36 35.003 33.7614 37.2416 31 37.2416H5C2.23858 37.2416 0 35.003 0 32.2416V5.75391Z" fill="black"/>
<path d="M29.7783 13.5797C29.4991 12.5206 28.6762 11.6866 27.6313 11.4036C25.7372 10.8892 18.1429 10.8892 18.1429 10.8892C18.1429 10.8892 10.5485 10.8892 8.6544 11.4036C7.60964 11.6866 6.78663 12.5206 6.50739 13.5797C6 15.4993 6 19.5045 6 19.5045C6 19.5045 6 23.5095 6.50739 25.4289C6.78663 26.488 7.60964 27.3222 8.6544 27.6052C10.5485 28.1195 18.1429 28.1195 18.1429 28.1195C18.1429 28.1195 25.7372 28.1195 27.6313 27.6052C28.6762 27.3222 29.4991 26.488 29.7783 25.4289C30.2857 23.5095 30.2857 19.5045 30.2857 19.5045C30.2857 19.5045 30.2857 15.4993 29.7783 13.5797ZM15.7141 23.1967V15.8121L22.0236 19.5045L15.7141 23.1967Z" fill="white"/>
</svg>
